<svg xmlns="http://www.w3.org/2000/svg" viewBox="0 0 512 512">
  <rect width="512" height="512" rx="96" fill="#0f172a"/>
  <rect x="80" y="160" width="352" height="240" rx="20" fill="#1e293b" stroke="#334155" stroke-width="8"/>
  <rect x="112" y="192" width="288" height="144" rx="12" fill="#0f172a"/>
  <!-- Display lines -->
  <rect x="128" y="208" width="180" height="16" rx="8" fill="#10b981" opacity="0.9"/>
  <rect x="128" y="234" width="120" height="10" rx="5" fill="#475569"/>
  <rect x="128" y="254" width="140" height="10" rx="5" fill="#475569"/>
  <!-- Total -->
  <rect x="128" y="280" width="90" height="22" rx="6" fill="#10b981" opacity="0.3"/>
  <rect x="232" y="280" width="80" height="22" rx="6" fill="#10b981"/>
  <!-- Keypad dots -->
  <circle cx="336" cy="212" r="10" fill="#334155"/>
  <circle cx="366" cy="212" r="10" fill="#334155"/>
  <circle cx="396" cy="212" r="10" fill="#334155"/>
  <circle cx="336" cy="242" r="10" fill="#334155"/>
  <circle cx="366" cy="242" r="10" fill="#334155"/>
  <circle cx="396" cy="242" r="10" fill="#334155"/>
  <circle cx="336" cy="272" r="10" fill="#334155"/>
  <circle cx="366" cy="272" r="10" fill="#334155"/>
  <circle cx="396" cy="272" r="10" fill="#10b981"/>
  <!-- Buttons bar -->
  <rect x="112" y="352" width="88" height="32" rx="8" fill="#334155"/>
  <rect x="212" y="352" width="88" height="32" rx="8" fill="#334155"/>
  <rect x="312" y="352" width="88" height="32" rx="8" fill="#10b981"/>
  <!-- Stand/base -->
  <rect x="220" y="400" width="72" height="16" rx="6" fill="#1e293b"/>
  <rect x="176" y="412" width="160" height="12" rx="6" fill="#334155"/>
</svg>
